<svg xmlns="http://www.w3.org/2000/svg" viewBox="0 0 512 512"><rect width="512" height="512" fill="white"/><g fill="none" stroke="#3d4b57" stroke-width="13" stroke-linecap="round"><path d="M210 170c-45 35-60 92-38 139 13 28 31 48 52 64"/><path d="M248 145c-51 39-72 105-49 158 14 31 38 54 62 69"/><path d="M286 145c42 35 61 83 50 127-8 31-28 55-51 77"/><path d="M323 171c38 34 49 78 36 119-9 28-27 48-47 67"/><path d="M184 205c-20 22-28 52-21 79"/><path d="M347 215c15 24 18 53 9 79"/></g><text x="256" y="385" text-anchor="middle" font-family="Arial,sans-serif" font-size="104" font-weight="900" letter-spacing="-8" fill="#3d4b57">TBM</text><text x="256" y="430" text-anchor="middle" font-family="Arial,sans-serif" font-size="32" font-weight="500" letter-spacing="14" fill="#1f2937">TÊXTIL</text></svg>